<svg width="145" height="36" viewBox="0 0 145 36" fill="none" xmlns="http://www.w3.org/2000/svg">
<mask id="mask0_31_534" style="mask-type:luminance" maskUnits="userSpaceOnUse" x="0" y="2" width="74" height="26">
<path d="M73.484 27.4987H67.4984L60.98 20.6011C60.6008 20.2023 60.3131 19.8231 60.1137 19.4668C59.9143 19.1104 59.813 18.7541 59.813 18.3945C59.813 17.051 60.6629 16.3154 62.3628 16.1912C64.6511 16.0245 66.3477 15.5668 67.4494 14.8215C68.551 14.0762 69.1035 12.9484 69.1035 11.4348C69.1035 10.0291 68.6785 8.97325 67.8286 8.27041C66.9786 7.56758 65.7658 7.21453 64.1902 7.21453H59.4665V27.4987H55.1841V2.93213H64.285C65.5664 2.93213 66.7727 3.11519 67.907 3.48459C69.0414 3.85072 70.0221 4.38684 70.8524 5.08967C71.6827 5.79251 72.3365 6.6686 72.8204 7.72122C73.3042 8.77057 73.5461 9.9801 73.5461 11.3433C73.5461 12.1638 73.4186 13.0007 73.1669 13.8637C72.9152 14.7234 72.4935 15.5341 71.9083 16.2893C71.3199 17.0444 70.5419 17.7113 69.5775 18.2899C68.6131 18.8685 67.4036 19.2706 65.9554 19.5027L73.484 27.502V27.4987ZM48.1917 4.03379C48.4859 3.57286 48.8487 3.24268 49.277 3.04001C49.7085 2.8406 50.1629 2.73926 50.6467 2.73926C51.1926 2.73926 51.6274 2.93213 51.9543 3.32114C52.2812 3.71015 52.4414 4.22993 52.4414 4.88046V27.4954H48.1884V10.8954L37.6687 27.4954H32.5658L48.1884 4.03052L48.1917 4.03379ZM29.2936 7.21453V27.4987H25.0112V7.21453H18.7445V2.93213H35.5635V7.21453H29.2968H29.2936ZM0.493623 27.4987V23.2163H9.00938C10.3333 23.2163 11.4252 22.9025 12.2849 22.2716C13.1447 21.6406 13.5762 20.8234 13.5762 19.8165C13.5762 19.3131 13.4618 18.8522 13.2297 18.4305C12.9976 18.0121 12.6837 17.6492 12.2849 17.3452C11.8861 17.0412 11.4023 16.8058 10.8368 16.6358C10.2712 16.4691 9.65991 16.3841 9.00938 16.3841H7.05779C6.05093 16.3841 5.116 16.2206 4.25298 15.897C3.39323 15.5701 2.6479 15.1092 2.01698 14.5109C1.38606 13.9127 0.892438 13.2099 0.536117 12.3992C0.179795 11.5917 0 10.6928 0 9.70551C0 8.71827 0.183065 7.84872 0.552463 7.0282C0.918591 6.21094 1.43836 5.49503 2.11178 4.887C2.78519 4.27896 3.59264 3.80169 4.53738 3.45517C5.48212 3.10866 6.52167 2.9354 7.65601 2.9354H15.8122V7.21779H7.43372C6.53147 7.21779 5.81556 7.46297 5.29252 7.95659C4.76621 8.45021 4.50469 9.0419 4.50469 9.73493C4.50469 10.4901 4.77275 11.121 5.30887 11.6244C5.84498 12.1278 6.55436 12.3796 7.43372 12.3796H9.85932C10.9512 12.3796 11.958 12.5626 12.8831 12.932C13.8083 13.2981 14.6059 13.8179 15.2761 14.4913C15.9495 15.1647 16.4725 15.9624 16.8517 16.8842C17.2309 17.8094 17.4173 18.8162 17.4173 19.9081C17.4173 20.9999 17.2179 22.0395 16.819 22.9646C16.4202 23.8897 15.8481 24.6874 15.1028 25.3575C14.3575 26.0309 13.4716 26.554 12.4418 26.9332C11.4121 27.3124 10.2679 27.4987 9.00938 27.4987H0.493623Z" fill="white"/>
</mask>
<g mask="url(#mask0_31_534)">
<path d="M73.5462 2.74316H0.00341797V27.4993H73.5462V2.74316Z" fill="white"/>
</g>
<mask id="mask1_31_534" style="mask-type:luminance" maskUnits="userSpaceOnUse" x="75" y="2" width="41" height="26">
<path d="M99.4988 10.4606V27.4987H95.3733V5.07332C95.3733 4.42279 95.5531 3.90302 95.9094 3.51401C96.2657 3.125 96.7822 2.93213 97.4524 2.93213C97.8708 2.93213 98.2664 3.02039 98.6325 3.20018C98.9986 3.37998 99.3713 3.71015 99.7505 4.19396L111.751 19.9735V2.9354H115.847V25.3935C115.847 26.9691 115.311 27.757 114.242 27.757C113.716 27.757 113.255 27.636 112.856 27.3941C112.457 27.1522 112.016 26.7795 111.532 26.2761L99.5021 10.4639L99.4988 10.4606ZM88.2861 27.4987V2.93213H92.5685V27.4987H88.2861ZM75.6252 27.4987V2.93213H79.8782V23.2163H86.5568V27.4987H75.6285H75.6252Z" fill="white"/>
</mask>
<g mask="url(#mask1_31_534)">
<path d="M115.847 2.93213H75.6252V27.7504H115.847V2.93213Z" fill="white"/>
</g>
<mask id="mask2_31_534" style="mask-type:luminance" maskUnits="userSpaceOnUse" x="138" y="0" width="7" height="4">
<path d="M139.541 3.52071V0.411893H138.38V0H141.169V0.411893H140.008V3.52071H139.541ZM141.639 3.52071V0H142.339L143.169 2.49425C143.248 2.72635 143.303 2.89634 143.342 3.01402C143.382 2.88653 143.447 2.69366 143.529 2.44848L144.375 0H145V3.52071H144.552V0.575343L143.526 3.52071H143.107L142.09 0.519771V3.52071H141.643H141.639Z" fill="white"/>
</mask>
<g mask="url(#mask2_31_534)">
<path d="M210.112 -77.7632H-65.1023V116.834H210.112V-77.7632Z" fill="white"/>
</g>
<mask id="mask3_31_534" style="mask-type:luminance" maskUnits="userSpaceOnUse" x="118" y="2" width="18" height="26">
<path d="M118.913 27.7052V15.296V4.45272L119.541 3.77931L120.466 2.89014H126.9H134.889V5.79955H122.509V13.4261H134.098V16.3356H122.509V24.7925H135.389V27.7052H118.913Z" fill="white"/>
</mask>
<g mask="url(#mask3_31_534)">
<path d="M135.389 2.89014H118.913V27.7052H135.389V2.89014Z" fill="white"/>
</g>
<mask id="mask4_31_534" style="mask-type:luminance" maskUnits="userSpaceOnUse" x="59" y="29" width="77" height="7">
<path d="M132.375 35.325V30.6438H135.755V31.193H132.996V32.6314H135.579V33.1806H132.996V34.7759H135.866V35.325H132.375ZM127.635 35.325V30.6438H128.272L130.727 34.3182V30.6438H131.322V35.325H130.685L128.23 31.6507V35.325H127.635ZM125.932 35.325V30.6438H126.553V35.325H125.932ZM122.163 35.325V30.6438H122.784V34.7759H125.085V35.325H122.163ZM119.711 33.9194V33.344H121.489V33.9194H119.711ZM115.285 35.325V30.6438H115.922L118.377 34.3182V30.6438H118.972V35.325H118.335L115.88 31.6507V35.325H115.285ZM110.656 33.0564C110.656 33.6186 110.806 34.0632 111.11 34.3868C111.414 34.7105 111.793 34.8739 112.251 34.8739C112.709 34.8739 113.101 34.7105 113.402 34.3836C113.702 34.0567 113.853 33.5925 113.853 32.991C113.853 32.6118 113.787 32.2783 113.66 31.9939C113.532 31.7095 113.343 31.4905 113.094 31.3336C112.846 31.1767 112.568 31.0982 112.261 31.0982C111.823 31.0982 111.447 31.2486 111.13 31.5493C110.813 31.8501 110.656 32.3502 110.656 33.0531V33.0564ZM110.015 33.0465C110.015 32.2718 110.224 31.6638 110.643 31.2224C111.061 30.7844 111.597 30.5654 112.257 30.5654C112.689 30.5654 113.078 30.67 113.428 30.8759C113.774 31.0819 114.039 31.3695 114.222 31.7389C114.405 32.1083 114.497 32.5268 114.497 32.9942C114.497 33.4617 114.402 33.8932 114.209 34.2659C114.016 34.6418 113.745 34.923 113.395 35.1158C113.042 35.3087 112.663 35.4035 112.257 35.4035C111.816 35.4035 111.424 35.2956 111.074 35.0831C110.728 34.8707 110.463 34.5797 110.286 34.2136C110.106 33.8475 110.018 33.4584 110.018 33.0465H110.015ZM104.042 35.325V30.6438H107.423V31.193H104.664V32.6314H107.246V33.1806H104.664V34.7759H107.534V35.325H104.042ZM99.9399 32.7098H101.27C101.555 32.7098 101.774 32.6804 101.934 32.6216C102.094 32.5627 102.215 32.4712 102.297 32.3404C102.379 32.213 102.421 32.0724 102.421 31.922C102.421 31.6997 102.343 31.5166 102.182 31.3761C102.022 31.2322 101.771 31.1636 101.424 31.1636H99.9432V32.7131L99.9399 32.7098ZM99.3188 35.325V30.6438H101.395C101.813 30.6438 102.13 30.6863 102.346 30.7713C102.562 30.8563 102.735 31.0034 102.866 31.2159C102.996 31.4284 103.059 31.6638 103.059 31.922C103.059 32.2554 102.951 32.5333 102.735 32.7621C102.519 32.991 102.189 33.1348 101.741 33.1969C101.905 33.2754 102.029 33.3538 102.114 33.429C102.294 33.5957 102.467 33.8017 102.627 34.0534L103.438 35.3283H102.663L102.045 34.3541C101.865 34.073 101.715 33.8573 101.601 33.7069C101.483 33.5565 101.378 33.4552 101.287 33.3931C101.195 33.3342 101.1 33.2917 101.006 33.2688C100.937 33.2558 100.823 33.246 100.662 33.246H99.9464V35.325H99.3253H99.3188ZM95.566 32.8668H96.7755C97.1776 32.8668 97.4587 32.7916 97.6287 32.6445C97.7954 32.4941 97.8804 32.2849 97.8804 32.0135C97.8804 31.8174 97.8314 31.6507 97.7333 31.5101C97.6352 31.3695 97.5045 31.278 97.341 31.2323C97.2364 31.2061 97.0435 31.1898 96.7624 31.1898H95.566V32.8635V32.8668ZM94.9448 35.325V30.6438H96.7134C97.0239 30.6438 97.2626 30.6602 97.426 30.6896C97.6548 30.7288 97.8477 30.8007 98.0046 30.9086C98.1615 31.0165 98.2858 31.1669 98.3806 31.3597C98.4754 31.5526 98.5211 31.7651 98.5211 31.9972C98.5211 32.3927 98.3936 32.7295 98.1419 33.004C97.8902 33.2786 97.4293 33.4159 96.769 33.4159H95.5692V35.325H94.9481H94.9448ZM89.4856 35.325V30.6438H90.414L91.5222 33.9586C91.6235 34.2659 91.6987 34.498 91.7445 34.6516C91.7968 34.4816 91.8818 34.2299 91.9962 33.8998L93.124 30.6438H93.9543V35.325H93.3594V31.4088L91.9929 35.325H91.4339L90.0838 31.3369V35.325H89.4889H89.4856ZM85.1509 35.325V30.6438H88.5311V31.193H85.772V32.6314H88.3545V33.1806H85.772V34.7759H88.6422V35.325H85.1509ZM80.5743 33.8213L81.1562 33.769C81.1823 34.0044 81.2477 34.1972 81.3491 34.3476C81.4504 34.498 81.6073 34.6189 81.8198 34.7137C82.0323 34.8053 82.2709 34.8543 82.539 34.8543C82.7743 34.8543 82.9836 34.8183 83.1633 34.7497C83.3431 34.6778 83.4772 34.583 83.5654 34.4588C83.6537 34.3345 83.6995 34.2005 83.6995 34.0567C83.6995 33.9128 83.657 33.7821 83.572 33.6742C83.487 33.5663 83.3464 33.4748 83.1503 33.3996C83.0261 33.3506 82.7482 33.2754 82.3167 33.1708C81.8852 33.0662 81.5844 32.9714 81.4144 32.8798C81.1921 32.7621 81.0254 32.615 80.9175 32.4418C80.8064 32.2685 80.7541 32.0724 80.7541 31.8599C80.7541 31.6213 80.8227 31.4022 80.9568 31.1963C81.0908 30.9903 81.2869 30.8334 81.5452 30.7288C81.8034 30.6209 82.0879 30.5686 82.4049 30.5686C82.7515 30.5686 83.0587 30.6242 83.3235 30.7354C83.5883 30.8465 83.791 31.01 83.9348 31.229C84.0787 31.4447 84.1539 31.6932 84.1637 31.9678L83.5687 32.0135C83.536 31.7193 83.4281 31.4938 83.2451 31.3434C83.062 31.193 82.7874 31.1178 82.4278 31.1178C82.0682 31.1178 81.7806 31.1865 81.6073 31.3238C81.4373 31.4611 81.3491 31.6278 81.3491 31.8207C81.3491 31.9874 81.4112 32.128 81.5321 32.2358C81.6531 32.3437 81.9636 32.4549 82.4671 32.5693C82.9705 32.6837 83.317 32.7818 83.5033 32.8668C83.7747 32.991 83.9773 33.1512 84.1048 33.344C84.2356 33.5369 84.2977 33.7559 84.2977 34.0076C84.2977 34.2593 84.2258 34.4914 84.0852 34.7105C83.9414 34.9295 83.7387 35.1028 83.4706 35.2237C83.2026 35.3447 82.9051 35.4068 82.5684 35.4068C82.1467 35.4068 81.7904 35.3447 81.506 35.2204C81.2183 35.0962 80.996 34.9132 80.8326 34.6647C80.6691 34.4163 80.5841 34.1384 80.5743 33.8246V33.8213ZM76.3606 29.8135L76.0042 30.3562H75.3504L76.0337 29.4604H76.6417L77.3707 30.3562H76.7169L76.3606 29.8135ZM74.6149 35.325V30.6438H77.9951V31.193H75.236V32.6314H77.8185V33.1806H75.236V34.7759H78.1062V35.325H74.6149ZM73.2125 33.6807L73.8336 33.8377C73.7029 34.3476 73.4708 34.7334 73.134 35.0014C72.7973 35.2695 72.3854 35.4035 71.8984 35.4035C71.4113 35.4035 70.9863 35.3022 70.6692 35.0962C70.3521 34.8903 70.1135 34.5928 69.95 34.2038C69.7866 33.8148 69.7016 33.3963 69.7016 32.9485C69.7016 32.4614 69.7931 32.0364 69.9795 31.6736C70.1658 31.3107 70.4306 31.0361 70.7738 30.8465C71.1171 30.6569 71.4963 30.5654 71.9082 30.5654C72.3756 30.5654 72.7712 30.6831 73.0883 30.9217C73.4086 31.1603 73.6309 31.4938 73.7552 31.9253L73.1471 32.0691C73.0392 31.7291 72.8823 31.4807 72.6764 31.327C72.4704 31.1701 72.2122 31.095 71.8984 31.095C71.5388 31.095 71.238 31.1799 70.9994 31.3532C70.7575 31.5265 70.5875 31.7586 70.4927 32.0462C70.3946 32.3372 70.3456 32.6379 70.3456 32.9452C70.3456 33.344 70.4044 33.6905 70.5188 33.988C70.6333 34.2855 70.8131 34.5078 71.0582 34.6549C71.3034 34.802 71.5649 34.8739 71.8493 34.8739C72.1958 34.8739 72.4868 34.7726 72.7287 34.5732C72.9673 34.3738 73.1308 34.0763 73.2158 33.6807H73.2125ZM65.2459 33.0564C65.2459 33.6186 65.3963 34.0632 65.7003 34.3868C66.0043 34.7105 66.3836 34.8739 66.8412 34.8739C67.2989 34.8739 67.6912 34.7105 67.9919 34.3836C68.2927 34.0567 68.443 33.5925 68.443 32.991C68.443 32.6118 68.3776 32.2783 68.2502 31.9939C68.1227 31.7095 67.9331 31.4905 67.6846 31.3336C67.4362 31.1767 67.1583 31.0982 66.851 31.0982C66.413 31.0982 66.037 31.2486 65.7199 31.5493C65.4029 31.8501 65.2459 32.3502 65.2459 33.0531V33.0564ZM64.6052 33.0465C64.6052 32.2718 64.8144 31.6638 65.2329 31.2224C65.6513 30.7844 66.1874 30.5654 66.8478 30.5654C67.2793 30.5654 67.6683 30.67 68.0181 30.8759C68.3646 31.0819 68.6294 31.3695 68.8124 31.7389C68.9955 32.1083 69.087 32.5268 69.087 32.9942C69.087 33.4617 68.9922 33.8932 68.7993 34.2659C68.6065 34.6418 68.3351 34.923 67.9854 35.1158C67.6323 35.3087 67.2531 35.4035 66.8478 35.4035C66.4064 35.4035 66.0142 35.2956 65.6644 35.0831C65.3179 34.8707 65.0531 34.5797 64.8765 34.2136C64.6967 33.8475 64.6085 33.4584 64.6085 33.0465H64.6052ZM61.7677 35.325L59.96 30.6438H60.6301L61.8462 34.0469C61.9442 34.3182 62.026 34.5732 62.0913 34.8118C62.1633 34.5568 62.2483 34.3018 62.3431 34.0469L63.6049 30.6438H64.2358L62.4117 35.325H61.7677Z" fill="white"/>
</mask>
<g mask="url(#mask4_31_534)">
<path d="M135.866 29.4604H59.9563V35.4035H135.866V29.4604Z" fill="white"/>
</g>
</svg>
