<svg width="197" height="56" viewBox="0 0 197 56" fill="none" xmlns="http://www.w3.org/2000/svg">
<g clip-path="url(#clip0_1_3165)">
<path fill-rule="evenodd" clip-rule="evenodd" d="M49.7982 18.4628L28.5782 33.0206L36.9027 40.0026L28.5782 33.0206L17.225 38.617L19.5848 26.3445L0 56L27.5748 35.5579L41.6038 47.2725L37.3672 29.8175L49.7982 18.4628Z" fill="white"/>
<mask id="mask0_1_3165" style="mask-type:luminance" maskUnits="userSpaceOnUse" x="0" y="18" width="50" height="38">
<path d="M49.7982 18.4628L28.5782 33.0206L36.9027 40.0026L28.5782 33.0206L17.225 38.617L19.5848 26.3445L0 56L27.5748 35.5579L41.6038 47.2725L37.3672 29.8175L49.7982 18.4628Z" fill="white"/>
</mask>
<g mask="url(#mask0_1_3165)">
<path d="M49.7982 18.4628H0V55.982H49.7982V18.4628Z" fill="white"/>
</g>
<path fill-rule="evenodd" clip-rule="evenodd" d="M32.1087 0L36.5868 17.8149L49.7981 18.4627L33.9854 18.6607L31.3097 8.56555L26.9244 18.4807L12.2637 18.3188L15.9057 22.5476L7.13525 15.0797L24.7876 16.9332L32.1087 0Z" fill="white"/>
<mask id="mask1_1_3165" style="mask-type:luminance" maskUnits="userSpaceOnUse" x="7" y="0" width="43" height="23">
<path d="M32.1087 0L36.5868 17.8149L49.7981 18.4627L33.9854 18.6607L31.3097 8.56555L26.9244 18.4807L12.2637 18.3188L15.9057 22.5476L7.13525 15.0797L24.7876 16.9332L32.1087 0Z" fill="white"/>
</mask>
<g mask="url(#mask1_1_3165)">
<path d="M49.7796 0H7.13525V22.5476H49.7796V0Z" fill="white"/>
</g>
<path d="M121.522 40.0026H115.205L108.329 32.9486C107.939 32.5348 107.623 32.1569 107.419 31.797C107.215 31.4371 107.103 31.0592 107.103 30.6993C107.103 29.3317 107.995 28.5759 109.797 28.4499C112.213 28.27 113.997 27.8201 115.167 27.0463C116.338 26.2905 116.914 25.1389 116.914 23.5913C116.914 22.1517 116.468 21.072 115.576 20.3522C114.684 19.6324 113.402 19.2725 111.73 19.2725H106.75V40.0026H102.235V14.8998H111.841C113.198 14.8998 114.461 15.0797 115.669 15.4576C116.858 15.8355 117.899 16.3754 118.772 17.0952C119.646 17.815 120.333 18.7147 120.853 19.7764C121.355 20.8561 121.615 22.0797 121.615 23.4833C121.615 24.3291 121.485 25.1749 121.225 26.0566C120.965 26.9384 120.519 27.7661 119.887 28.5399C119.274 29.3137 118.438 29.9975 117.434 30.5913C116.412 31.1851 115.149 31.599 113.607 31.833L121.541 40.0026H121.522ZM94.8394 16.0335C95.1553 15.5656 95.5269 15.2237 95.9914 15.0258C96.4374 14.8278 96.9205 14.7198 97.4408 14.7198C98.0168 14.7198 98.4813 14.9178 98.8158 15.3137C99.1503 15.7096 99.3361 16.2494 99.3361 16.9152V40.0206H94.858V23.0515L83.7649 40.0206H78.3763L94.858 16.0335H94.8394ZM74.9015 19.2725V40.0026H70.3863V19.2725H63.7713V14.8998H81.5165V19.2725H74.9015ZM39.8384 40.0026L38.7793 35.6299H53.4958C54.8894 35.6299 56.0414 35.306 56.9519 34.6582C57.8624 34.0103 58.3083 33.1826 58.3083 32.1389C58.3083 31.617 58.1783 31.1492 57.9367 30.7173C57.6952 30.2854 57.3607 29.9255 56.9333 29.6016C56.5059 29.2957 56.0043 29.0438 55.4096 28.8818C54.815 28.7019 54.1647 28.6299 53.4772 28.6299H51.4146C50.3555 28.6299 49.3707 28.4679 48.4602 28.126C47.5497 27.8021 46.7693 27.3162 46.1004 26.7044C45.4314 26.0926 44.9112 25.3728 44.5395 24.545C44.1679 23.7173 43.9821 22.7995 43.9821 21.7918C43.9821 20.7841 44.1679 19.8844 44.5581 19.0566C44.9483 18.2109 45.4872 17.4911 46.2119 16.8612C46.9179 16.2314 47.7727 15.7456 48.7761 15.4037C49.7795 15.0438 50.8758 14.8638 52.065 14.8638H60.6682V19.2366H51.8234C50.8758 19.2366 50.1139 19.4885 49.5565 19.9923C48.9991 20.4962 48.7203 21.108 48.7203 21.8098C48.7203 22.5836 48.9991 23.2314 49.5751 23.7353C50.1325 24.2571 50.8944 24.5091 51.8234 24.5091H54.3877C55.5397 24.5091 56.5989 24.689 57.5837 25.0669C58.5499 25.4448 59.4046 25.9666 60.1107 26.6684C60.8168 27.3522 61.3743 28.162 61.7645 29.1157C62.1547 30.0515 62.3591 31.0952 62.3591 32.2108C62.3591 33.3265 62.1547 34.3882 61.7273 35.324C61.3 36.2597 60.7053 37.0875 59.9249 37.7713C59.1445 38.4551 58.1969 38.9949 57.1191 39.3728C56.0414 39.7507 54.8336 39.9486 53.4958 39.9486H39.8384V40.0026Z" fill="white"/>
<mask id="mask2_1_3165" style="mask-type:luminance" maskUnits="userSpaceOnUse" x="38" y="14" width="84" height="27">
<path d="M121.522 40.0026H115.205L108.329 32.9486C107.939 32.5348 107.623 32.1569 107.419 31.797C107.215 31.4371 107.103 31.0592 107.103 30.6993C107.103 29.3317 107.995 28.5759 109.797 28.4499C112.213 28.27 113.997 27.8201 115.167 27.0463C116.338 26.2905 116.914 25.1389 116.914 23.5913C116.914 22.1517 116.468 21.072 115.576 20.3522C114.684 19.6324 113.402 19.2725 111.73 19.2725H106.75V40.0026H102.235V14.8998H111.841C113.198 14.8998 114.461 15.0797 115.669 15.4576C116.858 15.8355 117.899 16.3754 118.772 17.0952C119.646 17.815 120.333 18.7147 120.853 19.7764C121.355 20.8561 121.615 22.0797 121.615 23.4833C121.615 24.3291 121.485 25.1749 121.225 26.0566C120.965 26.9384 120.519 27.7661 119.887 28.5399C119.274 29.3137 118.438 29.9975 117.434 30.5913C116.412 31.1851 115.149 31.599 113.607 31.833L121.541 40.0026H121.522ZM94.8394 16.0335C95.1553 15.5656 95.5269 15.2237 95.9914 15.0258C96.4374 14.8278 96.9205 14.7198 97.4408 14.7198C98.0168 14.7198 98.4813 14.9178 98.8158 15.3137C99.1503 15.7096 99.3361 16.2494 99.3361 16.9152V40.0206H94.858V23.0515L83.7649 40.0206H78.3763L94.858 16.0335H94.8394ZM74.9015 19.2725V40.0026H70.3863V19.2725H63.7713V14.8998H81.5165V19.2725H74.9015ZM39.8384 40.0026L38.7793 35.6299H53.4958C54.8894 35.6299 56.0414 35.306 56.9519 34.6582C57.8624 34.0103 58.3083 33.1826 58.3083 32.1389C58.3083 31.617 58.1783 31.1492 57.9367 30.7173C57.6952 30.2854 57.3607 29.9255 56.9333 29.6016C56.5059 29.2957 56.0043 29.0438 55.4096 28.8818C54.815 28.7019 54.1647 28.6299 53.4772 28.6299H51.4146C50.3555 28.6299 49.3707 28.4679 48.4602 28.126C47.5497 27.8021 46.7693 27.3162 46.1004 26.7044C45.4314 26.0926 44.9112 25.3728 44.5395 24.545C44.1679 23.7173 43.9821 22.7995 43.9821 21.7918C43.9821 20.7841 44.1679 19.8844 44.5581 19.0566C44.9483 18.2109 45.4872 17.4911 46.2119 16.8612C46.9179 16.2314 47.7727 15.7456 48.7761 15.4037C49.7795 15.0438 50.8758 14.8638 52.065 14.8638H60.6682V19.2366H51.8234C50.8758 19.2366 50.1139 19.4885 49.5565 19.9923C48.9991 20.4962 48.7203 21.108 48.7203 21.8098C48.7203 22.5836 48.9991 23.2314 49.5751 23.7353C50.1325 24.2571 50.8944 24.5091 51.8234 24.5091H54.3877C55.5397 24.5091 56.5989 24.689 57.5837 25.0669C58.5499 25.4448 59.4046 25.9666 60.1107 26.6684C60.8168 27.3522 61.3743 28.162 61.7645 29.1157C62.1547 30.0515 62.3591 31.0952 62.3591 32.2108C62.3591 33.3265 62.1547 34.3882 61.7273 35.324C61.3 36.2597 60.7053 37.0875 59.9249 37.7713C59.1445 38.4551 58.1969 38.9949 57.1191 39.3728C56.0414 39.7507 54.8336 39.9486 53.4958 39.9486H39.8384V40.0026Z" fill="white"/>
</mask>
<g mask="url(#mask2_1_3165)">
<path d="M121.597 14.7019H38.7793V40.0027H121.597V14.7019Z" fill="white"/>
</g>
<path d="M193.451 15.4936V11.8947H194.194L195.068 14.4499C195.142 14.6839 195.216 14.8638 195.253 14.9898C195.291 14.8638 195.365 14.6659 195.458 14.4139L196.35 11.9126H197V15.5116H196.535V12.5065L195.458 15.5116H195.012L193.934 12.4525V15.5116H193.47L193.451 15.4936ZM191.24 15.4936V12.3085H190.013V11.8947H192.949V12.3085H191.723V15.4936H191.221H191.24Z" fill="white"/>
<mask id="mask3_1_3165" style="mask-type:luminance" maskUnits="userSpaceOnUse" x="190" y="11" width="7" height="5">
<path d="M193.451 15.4936V11.8947H194.194L195.068 14.4499C195.142 14.6839 195.216 14.8638 195.253 14.9898C195.291 14.8638 195.365 14.6659 195.458 14.4139L196.35 11.9126H197V15.5116H196.535V12.5065L195.458 15.5116H195.012L193.934 12.4525V15.5116H193.47L193.451 15.4936ZM191.24 15.4936V12.3085H190.013V11.8947H192.949V12.3085H191.723V15.4936H191.221H191.24Z" fill="white"/>
</mask>
<g mask="url(#mask3_1_3165)">
<path d="M197 11.8947H190.013V15.4936H197V11.8947Z" fill="white"/>
</g>
<path fill-rule="evenodd" clip-rule="evenodd" d="M31.7742 22.8354L33.1121 28.1979L37.0885 28.3959L32.3317 28.4498L31.5327 25.4267L30.2134 28.3959L25.8096 28.3419L26.9059 29.6195L24.2673 27.3702L29.563 27.928L31.7742 22.8354Z" fill="white"/>
<mask id="mask4_1_3165" style="mask-type:luminance" maskUnits="userSpaceOnUse" x="24" y="22" width="14" height="8">
<path d="M31.7742 22.8354L33.1121 28.1979L37.0885 28.3959L32.3317 28.4498L31.5327 25.4267L30.2134 28.3959L25.8096 28.3419L26.9059 29.6195L24.2673 27.3702L29.563 27.928L31.7742 22.8354Z" fill="white"/>
</mask>
<g mask="url(#mask4_1_3165)">
<path d="M37.0885 22.8354H24.2673V29.6195H37.0885V22.8354Z" fill="white"/>
</g>
<path fill-rule="evenodd" clip-rule="evenodd" d="M27.3332 33.9203L28.0022 30.7712L25.1406 35C25.4379 34.8921 25.7538 34.6941 26.1626 34.4962C26.8687 34.1543 27.1103 34.0283 27.3518 33.9023" fill="white"/>
<mask id="mask5_1_3165" style="mask-type:luminance" maskUnits="userSpaceOnUse" x="25" y="30" width="4" height="5">
<path d="M27.3332 33.9203L28.0022 30.7712L25.1406 35C25.4379 34.8921 25.7538 34.6941 26.1626 34.4962C26.8687 34.1543 27.1103 34.0283 27.3518 33.9023" fill="white"/>
</mask>
<g mask="url(#mask5_1_3165)">
<path d="M28.0022 30.7533H25.1406V34.9821H28.0022V30.7533Z" fill="white"/>
</g>
<path d="M150.454 23.1234V40.5425H146.106V17.635C146.106 16.9692 146.291 16.4473 146.663 16.0335C147.035 15.6376 147.574 15.4396 148.298 15.4396C148.744 15.4396 149.153 15.5296 149.543 15.7095C149.933 15.8895 150.324 16.2314 150.714 16.7173L163.368 32.8407V15.4216H167.697V38.3651C167.697 39.9666 167.14 40.7764 166.006 40.7764C165.449 40.7764 164.966 40.6504 164.538 40.3985C164.111 40.1466 163.646 39.7687 163.145 39.2648L150.454 23.1054V23.1234ZM138.636 40.5425V15.4396H143.151V40.5425H138.636ZM125.276 40.5425V15.4396H129.754V36.1697H136.796V40.5425H125.257H125.276Z" fill="white"/>
<mask id="mask6_1_3165" style="mask-type:luminance" maskUnits="userSpaceOnUse" x="125" y="15" width="43" height="26">
<path d="M150.454 23.1234V40.5425H146.106V17.635C146.106 16.9692 146.291 16.4473 146.663 16.0335C147.035 15.6376 147.574 15.4396 148.298 15.4396C148.744 15.4396 149.153 15.5296 149.543 15.7095C149.933 15.8895 150.324 16.2314 150.714 16.7173L163.368 32.8407V15.4216H167.697V38.3651C167.697 39.9666 167.14 40.7764 166.006 40.7764C165.449 40.7764 164.966 40.6504 164.538 40.3985C164.111 40.1466 163.646 39.7687 163.145 39.2648L150.454 23.1054V23.1234ZM138.636 40.5425V15.4396H143.151V40.5425H138.636ZM125.276 40.5425V15.4396H129.754V36.1697H136.796V40.5425H125.257H125.276Z" fill="white"/>
</mask>
<g mask="url(#mask6_1_3165)">
<path d="M167.716 15.4396H125.276V40.7943H167.716V15.4396Z" fill="white"/>
</g>
<path d="M170.224 40.7584V28.072V16.9872L170.874 16.3034L171.859 15.3856H178.641H187.077V18.3728H174.015V26.1645H186.241V29.1337H174.015V37.7712H187.598V40.7584H170.224Z" fill="white"/>
<mask id="mask7_1_3165" style="mask-type:luminance" maskUnits="userSpaceOnUse" x="170" y="15" width="18" height="26">
<path d="M170.224 40.7584V28.072V16.9872L170.874 16.3034L171.859 15.3856H178.641H187.077V18.3728H174.015V26.1645H186.241V29.1337H174.015V37.7712H187.598V40.7584H170.224Z" fill="white"/>
</mask>
<g mask="url(#mask7_1_3165)">
<path d="M187.616 15.3856H170.224V40.7404H187.616V15.3856Z" fill="white"/>
</g>
<path d="M184.235 48.2262V43.4395H187.802V43.9974H184.885V45.473H187.616V46.0308H184.885V47.6683H187.914V48.2262H184.235ZM179.236 48.2262V43.4395H179.905L182.488 47.2005V43.4395H183.12V48.2262H182.451L179.868 44.4652V48.2262H179.236ZM177.434 48.2262V43.4395H178.084V48.2262H177.434ZM173.457 48.2262V43.4395H174.108V47.6683H176.542V48.2262H173.457ZM170.875 46.7866V46.1928H172.751V46.7866H170.875ZM166.211 48.2262V43.4395H166.88L169.462 47.2005V43.4395H170.094V48.2262H169.425L166.842 44.4652V48.2262H166.211ZM161.324 45.9228C161.324 46.4987 161.491 46.9485 161.807 47.2904C162.123 47.6144 162.532 47.7943 163.015 47.7943C163.498 47.7943 163.907 47.6323 164.222 47.2904C164.538 46.9485 164.706 46.4807 164.706 45.8688C164.706 45.473 164.631 45.1491 164.501 44.8431C164.371 44.5552 164.167 44.3213 163.907 44.1773C163.646 44.0154 163.349 43.9434 163.033 43.9434C162.569 43.9434 162.178 44.1054 161.844 44.4113C161.51 44.7172 161.342 45.239 161.342 45.9408L161.324 45.9228ZM160.636 45.9048C160.636 45.1131 160.859 44.4832 161.305 44.0334C161.751 43.5835 162.309 43.3676 163.015 43.3676C163.479 43.3676 163.888 43.4755 164.241 43.6915C164.613 43.9074 164.891 44.1953 165.077 44.5732C165.263 44.9511 165.374 45.383 165.374 45.8509C165.374 46.3187 165.282 46.7686 165.077 47.1465C164.873 47.5244 164.594 47.8123 164.222 48.0102C163.851 48.2082 163.442 48.2982 163.015 48.2982C162.55 48.2982 162.141 48.1902 161.77 47.9742C161.398 47.7583 161.119 47.4524 160.934 47.0925C160.748 46.7146 160.655 46.3187 160.655 45.9048H160.636ZM154.337 48.2262V43.4395H157.905V43.9974H154.987V45.473H157.719V46.0308H154.987V47.6683H158.016V48.2262H154.337ZM150.008 45.5629H151.401C151.699 45.5629 151.94 45.5269 152.107 45.473C152.275 45.419 152.405 45.311 152.498 45.185C152.59 45.0591 152.628 44.9151 152.628 44.7532C152.628 44.5192 152.535 44.3393 152.368 44.1953C152.2 44.0514 151.94 43.9794 151.568 43.9794H150.008V45.5629ZM149.357 48.2262V43.4395H151.55C151.996 43.4395 152.33 43.4755 152.553 43.5655C152.776 43.6555 152.962 43.7994 153.111 44.0154C153.241 44.2313 153.315 44.4653 153.315 44.7352C153.315 45.0771 153.204 45.365 152.981 45.5989C152.758 45.8329 152.405 45.9768 151.922 46.0488C152.089 46.1208 152.219 46.2108 152.312 46.2827C152.498 46.4447 152.683 46.6606 152.851 46.9126L153.705 48.2082H152.888L152.237 47.2185C152.052 46.9305 151.884 46.7146 151.773 46.5527C151.643 46.4087 151.531 46.3007 151.438 46.2287C151.346 46.1748 151.234 46.1208 151.141 46.1028C151.067 46.1028 150.955 46.0848 150.769 46.0848H150.008V48.2082H149.357V48.2262ZM145.399 45.7249H146.682C147.109 45.7249 147.406 45.6529 147.573 45.491C147.759 45.347 147.834 45.1311 147.834 44.8431C147.834 44.6452 147.778 44.4652 147.685 44.3213C147.574 44.1773 147.443 44.0874 147.276 44.0334C147.165 43.9974 146.96 43.9974 146.663 43.9974H145.399V45.7069V45.7249ZM144.749 48.2262V43.4395H146.607C146.942 43.4395 147.183 43.4395 147.351 43.4935C147.592 43.5295 147.796 43.6015 147.964 43.7095C148.131 43.8174 148.261 43.9794 148.354 44.1773C148.447 44.3753 148.503 44.5912 148.503 44.8251C148.503 45.239 148.372 45.5809 148.094 45.8509C147.834 46.1388 147.351 46.2647 146.644 46.2647H145.381V48.2082H144.731L144.749 48.2262ZM138.989 48.2262V43.4395H139.974L141.144 46.8226C141.256 47.1465 141.33 47.3804 141.386 47.5244C141.442 47.3444 141.535 47.0925 141.646 46.7506L142.835 43.4215H143.709V48.2082H143.077V44.2133L141.627 48.2082H141.033L139.602 44.1413V48.2082H138.97L138.989 48.2262ZM134.418 48.2262V43.4395H137.985V43.9974H135.068V45.473H137.8V46.0308H135.068V47.6683H138.097V48.2262H134.418ZM129.587 46.6966L130.2 46.6426C130.237 46.8766 130.293 47.0745 130.404 47.2365C130.516 47.3984 130.683 47.5064 130.906 47.6143C131.129 47.7043 131.389 47.7583 131.668 47.7583C131.909 47.7583 132.132 47.7223 132.337 47.6503C132.523 47.5784 132.671 47.4704 132.764 47.3444C132.857 47.2185 132.913 47.0745 132.913 46.9305C132.913 46.7866 132.876 46.6426 132.783 46.5347C132.69 46.4267 132.541 46.3367 132.337 46.2467C132.207 46.1928 131.909 46.1208 131.463 46.0128C131.017 45.9048 130.683 45.8149 130.516 45.7069C130.274 45.5809 130.107 45.437 129.995 45.257C129.884 45.0771 129.828 44.8791 129.828 44.6632C129.828 44.4293 129.903 44.1953 130.033 43.9794C130.181 43.7635 130.386 43.6015 130.646 43.4935C130.925 43.3856 131.222 43.3316 131.556 43.3316C131.928 43.3316 132.244 43.3856 132.523 43.5115C132.801 43.6195 133.024 43.7994 133.173 44.0154C133.322 44.2313 133.396 44.4832 133.414 44.7712L132.783 44.8251C132.746 44.5192 132.634 44.3033 132.448 44.1413C132.262 43.9794 131.965 43.9074 131.593 43.9074C131.222 43.9074 130.906 43.9794 130.72 44.1233C130.534 44.2673 130.441 44.4293 130.441 44.6272C130.441 44.8072 130.497 44.9331 130.627 45.0591C130.757 45.1671 131.073 45.293 131.612 45.401C132.151 45.509 132.504 45.6169 132.708 45.7069C132.987 45.8329 133.21 45.9948 133.34 46.1928C133.47 46.3907 133.545 46.6066 133.545 46.8766C133.545 47.1465 133.47 47.3624 133.322 47.5964C133.173 47.8123 132.95 47.9922 132.671 48.1182C132.392 48.2442 132.077 48.2982 131.724 48.2982C131.278 48.2982 130.906 48.2262 130.609 48.1002C130.311 47.9742 130.07 47.7763 129.903 47.5244C129.735 47.2724 129.642 46.9845 129.624 46.6606L129.587 46.6966ZM125.127 42.5938L124.756 43.1516H124.068L124.793 42.2339H125.443L126.205 43.1516H125.517L125.146 42.5938H125.127ZM123.288 48.2262V43.4395H126.855V43.9974H123.938V45.473H126.669V46.0308H123.938V47.6683H126.967V48.2262H123.288ZM121.82 46.5527L122.47 46.7146C122.34 47.2365 122.08 47.6323 121.727 47.9023C121.374 48.1722 120.928 48.3162 120.426 48.3162C119.924 48.3162 119.46 48.2082 119.125 47.9922C118.791 47.7763 118.531 47.4704 118.364 47.0745C118.196 46.6786 118.103 46.2467 118.103 45.7969C118.103 45.293 118.196 44.8611 118.401 44.5012C118.605 44.1233 118.884 43.8534 119.237 43.6555C119.59 43.4575 119.999 43.3676 120.426 43.3676C120.928 43.3676 121.337 43.4935 121.671 43.7275C122.005 43.9794 122.247 44.3213 122.377 44.7532L121.727 44.8971C121.615 44.5552 121.448 44.3033 121.225 44.1413C121.002 43.9794 120.742 43.9074 120.407 43.9074C120.036 43.9074 119.72 43.9974 119.46 44.1773C119.2 44.3573 119.032 44.5912 118.921 44.8791C118.809 45.185 118.772 45.491 118.772 45.7969C118.772 46.2108 118.828 46.5527 118.958 46.8586C119.088 47.1645 119.274 47.3804 119.534 47.5424C119.794 47.6863 120.073 47.7763 120.37 47.7763C120.742 47.7763 121.039 47.6683 121.299 47.4704C121.56 47.2724 121.727 46.9665 121.82 46.5527ZM113.402 45.9228C113.402 46.4987 113.57 46.9485 113.885 47.2904C114.201 47.6144 114.61 47.7943 115.093 47.7943C115.576 47.7943 115.985 47.6323 116.301 47.2904C116.617 46.9485 116.784 46.4807 116.784 45.8688C116.784 45.473 116.71 45.1491 116.58 44.8431C116.45 44.5552 116.245 44.3213 115.985 44.1773C115.725 44.0154 115.428 43.9434 115.112 43.9434C114.647 43.9434 114.257 44.1054 113.923 44.4113C113.588 44.7172 113.421 45.239 113.421 45.9408L113.402 45.9228ZM112.733 45.9048C112.733 45.1131 112.956 44.4832 113.402 44.0334C113.848 43.5835 114.406 43.3676 115.112 43.3676C115.576 43.3676 115.985 43.4755 116.338 43.6915C116.71 43.9074 116.989 44.1953 117.174 44.5732C117.36 44.9511 117.472 45.383 117.472 45.8509C117.472 46.3187 117.379 46.7686 117.174 47.1465C116.97 47.5244 116.691 47.8123 116.32 48.0102C115.948 48.2082 115.539 48.2982 115.112 48.2982C114.647 48.2982 114.238 48.1902 113.867 47.9742C113.495 47.7583 113.216 47.4524 113.031 47.0925C112.845 46.7146 112.752 46.3187 112.752 45.9048H112.733ZM109.742 48.2262L107.828 43.4395H108.534L109.816 46.9126C109.928 47.1825 110.002 47.4524 110.076 47.6863C110.151 47.4164 110.243 47.1645 110.336 46.9126L111.674 43.4395H112.343L110.411 48.2262H109.723H109.742Z" fill="white"/>
<mask id="mask8_1_3165" style="mask-type:luminance" maskUnits="userSpaceOnUse" x="107" y="42" width="81" height="7">
<path d="M184.235 48.2262V43.4395H187.802V43.9974H184.885V45.473H187.616V46.0308H184.885V47.6683H187.914V48.2262H184.235ZM179.236 48.2262V43.4395H179.905L182.488 47.2005V43.4395H183.12V48.2262H182.451L179.868 44.4652V48.2262H179.236ZM177.434 48.2262V43.4395H178.084V48.2262H177.434ZM173.457 48.2262V43.4395H174.108V47.6683H176.542V48.2262H173.457ZM170.875 46.7866V46.1928H172.751V46.7866H170.875ZM166.211 48.2262V43.4395H166.88L169.462 47.2005V43.4395H170.094V48.2262H169.425L166.842 44.4652V48.2262H166.211ZM161.324 45.9228C161.324 46.4987 161.491 46.9485 161.807 47.2904C162.123 47.6144 162.532 47.7943 163.015 47.7943C163.498 47.7943 163.907 47.6323 164.222 47.2904C164.538 46.9485 164.706 46.4807 164.706 45.8688C164.706 45.473 164.631 45.1491 164.501 44.8431C164.371 44.5552 164.167 44.3213 163.907 44.1773C163.646 44.0154 163.349 43.9434 163.033 43.9434C162.569 43.9434 162.178 44.1054 161.844 44.4113C161.51 44.7172 161.342 45.239 161.342 45.9408L161.324 45.9228ZM160.636 45.9048C160.636 45.1131 160.859 44.4832 161.305 44.0334C161.751 43.5835 162.309 43.3676 163.015 43.3676C163.479 43.3676 163.888 43.4755 164.241 43.6915C164.613 43.9074 164.891 44.1953 165.077 44.5732C165.263 44.9511 165.374 45.383 165.374 45.8509C165.374 46.3187 165.282 46.7686 165.077 47.1465C164.873 47.5244 164.594 47.8123 164.222 48.0102C163.851 48.2082 163.442 48.2982 163.015 48.2982C162.55 48.2982 162.141 48.1902 161.77 47.9742C161.398 47.7583 161.119 47.4524 160.934 47.0925C160.748 46.7146 160.655 46.3187 160.655 45.9048H160.636ZM154.337 48.2262V43.4395H157.905V43.9974H154.987V45.473H157.719V46.0308H154.987V47.6683H158.016V48.2262H154.337ZM150.008 45.5629H151.401C151.699 45.5629 151.94 45.5269 152.107 45.473C152.275 45.419 152.405 45.311 152.498 45.185C152.59 45.0591 152.628 44.9151 152.628 44.7532C152.628 44.5192 152.535 44.3393 152.368 44.1953C152.2 44.0514 151.94 43.9794 151.568 43.9794H150.008V45.5629ZM149.357 48.2262V43.4395H151.55C151.996 43.4395 152.33 43.4755 152.553 43.5655C152.776 43.6555 152.962 43.7994 153.111 44.0154C153.241 44.2313 153.315 44.4653 153.315 44.7352C153.315 45.0771 153.204 45.365 152.981 45.5989C152.758 45.8329 152.405 45.9768 151.922 46.0488C152.089 46.1208 152.219 46.2108 152.312 46.2827C152.498 46.4447 152.683 46.6606 152.851 46.9126L153.705 48.2082H152.888L152.237 47.2185C152.052 46.9305 151.884 46.7146 151.773 46.5527C151.643 46.4087 151.531 46.3007 151.438 46.2287C151.346 46.1748 151.234 46.1208 151.141 46.1028C151.067 46.1028 150.955 46.0848 150.769 46.0848H150.008V48.2082H149.357V48.2262ZM145.399 45.7249H146.682C147.109 45.7249 147.406 45.6529 147.573 45.491C147.759 45.347 147.834 45.1311 147.834 44.8431C147.834 44.6452 147.778 44.4652 147.685 44.3213C147.574 44.1773 147.443 44.0874 147.276 44.0334C147.165 43.9974 146.96 43.9974 146.663 43.9974H145.399V45.7069V45.7249ZM144.749 48.2262V43.4395H146.607C146.942 43.4395 147.183 43.4395 147.351 43.4935C147.592 43.5295 147.796 43.6015 147.964 43.7095C148.131 43.8174 148.261 43.9794 148.354 44.1773C148.447 44.3753 148.503 44.5912 148.503 44.8251C148.503 45.239 148.372 45.5809 148.094 45.8509C147.834 46.1388 147.351 46.2647 146.644 46.2647H145.381V48.2082H144.731L144.749 48.2262ZM138.989 48.2262V43.4395H139.974L141.144 46.8226C141.256 47.1465 141.33 47.3804 141.386 47.5244C141.442 47.3444 141.535 47.0925 141.646 46.7506L142.835 43.4215H143.709V48.2082H143.077V44.2133L141.627 48.2082H141.033L139.602 44.1413V48.2082H138.97L138.989 48.2262ZM134.418 48.2262V43.4395H137.985V43.9974H135.068V45.473H137.8V46.0308H135.068V47.6683H138.097V48.2262H134.418ZM129.587 46.6966L130.2 46.6426C130.237 46.8766 130.293 47.0745 130.404 47.2365C130.516 47.3984 130.683 47.5064 130.906 47.6143C131.129 47.7043 131.389 47.7583 131.668 47.7583C131.909 47.7583 132.132 47.7223 132.337 47.6503C132.523 47.5784 132.671 47.4704 132.764 47.3444C132.857 47.2185 132.913 47.0745 132.913 46.9305C132.913 46.7866 132.876 46.6426 132.783 46.5347C132.69 46.4267 132.541 46.3367 132.337 46.2467C132.207 46.1928 131.909 46.1208 131.463 46.0128C131.017 45.9048 130.683 45.8149 130.516 45.7069C130.274 45.5809 130.107 45.437 129.995 45.257C129.884 45.0771 129.828 44.8791 129.828 44.6632C129.828 44.4293 129.903 44.1953 130.033 43.9794C130.181 43.7635 130.386 43.6015 130.646 43.4935C130.925 43.3856 131.222 43.3316 131.556 43.3316C131.928 43.3316 132.244 43.3856 132.523 43.5115C132.801 43.6195 133.024 43.7994 133.173 44.0154C133.322 44.2313 133.396 44.4832 133.414 44.7712L132.783 44.8251C132.746 44.5192 132.634 44.3033 132.448 44.1413C132.262 43.9794 131.965 43.9074 131.593 43.9074C131.222 43.9074 130.906 43.9794 130.72 44.1233C130.534 44.2673 130.441 44.4293 130.441 44.6272C130.441 44.8072 130.497 44.9331 130.627 45.0591C130.757 45.1671 131.073 45.293 131.612 45.401C132.151 45.509 132.504 45.6169 132.708 45.7069C132.987 45.8329 133.21 45.9948 133.34 46.1928C133.47 46.3907 133.545 46.6066 133.545 46.8766C133.545 47.1465 133.47 47.3624 133.322 47.5964C133.173 47.8123 132.95 47.9922 132.671 48.1182C132.392 48.2442 132.077 48.2982 131.724 48.2982C131.278 48.2982 130.906 48.2262 130.609 48.1002C130.311 47.9742 130.07 47.7763 129.903 47.5244C129.735 47.2724 129.642 46.9845 129.624 46.6606L129.587 46.6966ZM125.127 42.5938L124.756 43.1516H124.068L124.793 42.2339H125.443L126.205 43.1516H125.517L125.146 42.5938H125.127ZM123.288 48.2262V43.4395H126.855V43.9974H123.938V45.473H126.669V46.0308H123.938V47.6683H126.967V48.2262H123.288ZM121.82 46.5527L122.47 46.7146C122.34 47.2365 122.08 47.6323 121.727 47.9023C121.374 48.1722 120.928 48.3162 120.426 48.3162C119.924 48.3162 119.46 48.2082 119.125 47.9922C118.791 47.7763 118.531 47.4704 118.364 47.0745C118.196 46.6786 118.103 46.2467 118.103 45.7969C118.103 45.293 118.196 44.8611 118.401 44.5012C118.605 44.1233 118.884 43.8534 119.237 43.6555C119.59 43.4575 119.999 43.3676 120.426 43.3676C120.928 43.3676 121.337 43.4935 121.671 43.7275C122.005 43.9794 122.247 44.3213 122.377 44.7532L121.727 44.8971C121.615 44.5552 121.448 44.3033 121.225 44.1413C121.002 43.9794 120.742 43.9074 120.407 43.9074C120.036 43.9074 119.72 43.9974 119.46 44.1773C119.2 44.3573 119.032 44.5912 118.921 44.8791C118.809 45.185 118.772 45.491 118.772 45.7969C118.772 46.2108 118.828 46.5527 118.958 46.8586C119.088 47.1645 119.274 47.3804 119.534 47.5424C119.794 47.6863 120.073 47.7763 120.37 47.7763C120.742 47.7763 121.039 47.6683 121.299 47.4704C121.56 47.2724 121.727 46.9665 121.82 46.5527ZM113.402 45.9228C113.402 46.4987 113.57 46.9485 113.885 47.2904C114.201 47.6144 114.61 47.7943 115.093 47.7943C115.576 47.7943 115.985 47.6323 116.301 47.2904C116.617 46.9485 116.784 46.4807 116.784 45.8688C116.784 45.473 116.71 45.1491 116.58 44.8431C116.45 44.5552 116.245 44.3213 115.985 44.1773C115.725 44.0154 115.428 43.9434 115.112 43.9434C114.647 43.9434 114.257 44.1054 113.923 44.4113C113.588 44.7172 113.421 45.239 113.421 45.9408L113.402 45.9228ZM112.733 45.9048C112.733 45.1131 112.956 44.4832 113.402 44.0334C113.848 43.5835 114.406 43.3676 115.112 43.3676C115.576 43.3676 115.985 43.4755 116.338 43.6915C116.71 43.9074 116.989 44.1953 117.174 44.5732C117.36 44.9511 117.472 45.383 117.472 45.8509C117.472 46.3187 117.379 46.7686 117.174 47.1465C116.97 47.5244 116.691 47.8123 116.32 48.0102C115.948 48.2082 115.539 48.2982 115.112 48.2982C114.647 48.2982 114.238 48.1902 113.867 47.9742C113.495 47.7583 113.216 47.4524 113.031 47.0925C112.845 46.7146 112.752 46.3187 112.752 45.9048H112.733ZM109.742 48.2262L107.828 43.4395H108.534L109.816 46.9126C109.928 47.1825 110.002 47.4524 110.076 47.6863C110.151 47.4164 110.243 47.1645 110.336 46.9126L111.674 43.4395H112.343L110.411 48.2262H109.723H109.742Z" fill="white"/>
</mask>
<g mask="url(#mask8_1_3165)">
<path d="M187.932 42.2339H107.828V48.2982H187.932V42.2339Z" fill="white"/>
</g>
</g>
<defs>
<clipPath id="clip0_1_3165">
<rect width="197" height="56" fill="white"/>
</clipPath>
</defs>
</svg>
