
<svg width="245" height="244" viewBox="0 0 245 244" fill="none" xmlns="http://www.w3.org/2000/svg">
<circle cx="121.5" cy="121" r="93.5" stroke="url(#paint0_linear_3755_173)"/>
<circle cx="121.5" cy="121" r="102.5" stroke="url(#paint1_linear_3755_173)"/>
<circle opacity="0.6" cx="122" cy="121.5" r="112" stroke="url(#paint2_linear_3755_173)"/>
<circle opacity="0.3" cx="122.5" cy="122" r="121.5" stroke="url(#paint3_linear_3755_173)"/>
<path d="M147.038 89.67L123.518 147H103.82L127.536 91.924H99.6056V75.46H147.038V89.67Z" fill="white"/>
<path d="M104.693 174.032C104.693 173.024 104.897 172.142 105.305 171.386C105.713 170.618 106.271 170.024 106.979 169.604C107.699 169.184 108.503 168.974 109.391 168.974C110.159 168.974 110.873 169.154 111.533 169.514C112.193 169.862 112.697 170.324 113.045 170.9V165.68H114.701V179H113.045V177.146C112.721 177.734 112.241 178.22 111.605 178.604C110.969 178.976 110.225 179.162 109.373 179.162C108.497 179.162 107.699 178.946 106.979 178.514C106.271 178.082 105.713 177.476 105.305 176.696C104.897 175.916 104.693 175.028 104.693 174.032ZM113.045 174.05C113.045 173.306 112.895 172.658 112.595 172.106C112.295 171.554 111.887 171.134 111.371 170.846C110.867 170.546 110.309 170.396 109.697 170.396C109.085 170.396 108.527 170.54 108.023 170.828C107.519 171.116 107.117 171.536 106.817 172.088C106.517 172.64 106.367 173.288 106.367 174.032C106.367 174.788 106.517 175.448 106.817 176.012C107.117 176.564 107.519 176.99 108.023 177.29C108.527 177.578 109.085 177.722 109.697 177.722C110.309 177.722 110.867 177.578 111.371 177.29C111.887 176.99 112.295 176.564 112.595 176.012C112.895 175.448 113.045 174.794 113.045 174.05ZM118.315 167.534C118.003 167.534 117.739 167.426 117.523 167.21C117.307 166.994 117.199 166.73 117.199 166.418C117.199 166.106 117.307 165.842 117.523 165.626C117.739 165.41 118.003 165.302 118.315 165.302C118.615 165.302 118.867 165.41 119.071 165.626C119.287 165.842 119.395 166.106 119.395 166.418C119.395 166.73 119.287 166.994 119.071 167.21C118.867 167.426 118.615 167.534 118.315 167.534ZM119.107 169.136V179H117.469V169.136H119.107ZM121.287 174.032C121.287 173.024 121.491 172.142 121.899 171.386C122.307 170.618 122.865 170.024 123.573 169.604C124.293 169.184 125.091 168.974 125.967 168.974C126.831 168.974 127.581 169.16 128.217 169.532C128.853 169.904 129.327 170.372 129.639 170.936V169.136H131.295V179H129.639V177.164C129.315 177.74 128.829 178.22 128.181 178.604C127.545 178.976 126.801 179.162 125.949 179.162C125.073 179.162 124.281 178.946 123.573 178.514C122.865 178.082 122.307 177.476 121.899 176.696C121.491 175.916 121.287 175.028 121.287 174.032ZM129.639 174.05C129.639 173.306 129.489 172.658 129.189 172.106C128.889 171.554 128.481 171.134 127.965 170.846C127.461 170.546 126.903 170.396 126.291 170.396C125.679 170.396 125.121 170.54 124.617 170.828C124.113 171.116 123.711 171.536 123.411 172.088C123.111 172.64 122.961 173.288 122.961 174.032C122.961 174.788 123.111 175.448 123.411 176.012C123.711 176.564 124.113 176.99 124.617 177.29C125.121 177.578 125.679 177.722 126.291 177.722C126.903 177.722 127.461 177.578 127.965 177.29C128.481 176.99 128.889 176.564 129.189 176.012C129.489 175.448 129.639 174.794 129.639 174.05ZM137.555 179.162C136.799 179.162 136.121 179.036 135.521 178.784C134.921 178.52 134.447 178.16 134.099 177.704C133.751 177.236 133.559 176.702 133.523 176.102H135.215C135.263 176.594 135.491 176.996 135.899 177.308C136.319 177.62 136.865 177.776 137.537 177.776C138.161 177.776 138.653 177.638 139.013 177.362C139.373 177.086 139.553 176.738 139.553 176.318C139.553 175.886 139.361 175.568 138.977 175.364C138.593 175.148 137.999 174.938 137.195 174.734C136.463 174.542 135.863 174.35 135.395 174.158C134.939 173.954 134.543 173.66 134.207 173.276C133.883 172.88 133.721 172.364 133.721 171.728C133.721 171.224 133.871 170.762 134.171 170.342C134.471 169.922 134.897 169.592 135.449 169.352C136.001 169.1 136.631 168.974 137.339 168.974C138.431 168.974 139.313 169.25 139.985 169.802C140.657 170.354 141.017 171.11 141.065 172.07H139.427C139.391 171.554 139.181 171.14 138.797 170.828C138.425 170.516 137.921 170.36 137.285 170.36C136.697 170.36 136.229 170.486 135.881 170.738C135.533 170.99 135.359 171.32 135.359 171.728C135.359 172.052 135.461 172.322 135.665 172.538C135.881 172.742 136.145 172.91 136.457 173.042C136.781 173.162 137.225 173.3 137.789 173.456C138.497 173.648 139.073 173.84 139.517 174.032C139.961 174.212 140.339 174.488 140.651 174.86C140.975 175.232 141.143 175.718 141.155 176.318C141.155 176.858 141.005 177.344 140.705 177.776C140.405 178.208 139.979 178.55 139.427 178.802C138.887 179.042 138.263 179.162 137.555 179.162Z" fill="white"/>
<defs>
<linearGradient id="paint0_linear_3755_173" x1="76.9349" y1="20.5616" x2="209.391" y2="46.5188" gradientUnits="userSpaceOnUse">
<stop stop-color="#CDCCFF"/>
<stop offset="0.471154" stop-color="#CDCCFF" stop-opacity="0.15"/>
<stop offset="1" stop-color="#7B7A99"/>
</linearGradient>
<linearGradient id="paint1_linear_3755_173" x1="72.668" y1="10.9452" x2="217.806" y2="39.3876" gradientUnits="userSpaceOnUse">
<stop stop-color="#CDCCFF"/>
<stop offset="0.471154" stop-color="#CDCCFF" stop-opacity="0.15"/>
<stop offset="1" stop-color="#7B7A99"/>
</linearGradient>
<linearGradient id="paint2_linear_3755_173" x1="68.6641" y1="1.29452" x2="227.189" y2="32.3603" gradientUnits="userSpaceOnUse">
<stop stop-color="#CDCCFF"/>
<stop offset="0.471154" stop-color="#CDCCFF" stop-opacity="0.15"/>
<stop offset="1" stop-color="#7B7A99"/>
</linearGradient>
<linearGradient id="paint3_linear_3755_173" x1="64.6601" y1="-8.35616" x2="236.571" y2="25.3329" gradientUnits="userSpaceOnUse">
<stop stop-color="#CDCCFF"/>
<stop offset="0.471154" stop-color="#CDCCFF" stop-opacity="0.15"/>
<stop offset="1" stop-color="#7B7A99"/>
</linearGradient>
</defs>
</svg>
