<svg width="35" height="36" viewBox="0 0 35 36" fill="none" xmlns="http://www.w3.org/2000/svg">
<path d="M5 1.75C2.89062 1.75 1.25 3.46875 1.25 5.5V30.5C1.25 32.6094 2.89062 34.25 5 34.25H30C32.0312 34.25 33.75 32.6094 33.75 30.5V5.5C33.75 3.46875 32.0312 1.75 30 1.75H5ZM0 5.5C0 2.76562 2.1875 0.5 5 0.5H30C32.7344 0.5 35 2.76562 35 5.5V30.5C35 33.3125 32.7344 35.5 30 35.5H5C2.1875 35.5 0 33.3125 0 30.5V5.5ZM25.3906 13.4688L15.3906 23.4688C15.1562 23.7031 14.7656 23.7031 14.5312 23.4688L9.53125 18.4688C9.29688 18.2344 9.29688 17.8438 9.53125 17.6094C9.76562 17.375 10.1562 17.375 10.3906 17.6094L15 22.1406L24.5312 12.6094C24.7656 12.375 25.1562 12.375 25.3906 12.6094C25.625 12.8438 25.625 13.2344 25.3906 13.4688Z" fill="#88E016"/>
</svg>
