<svg width="35" height="36" viewBox="0 0 35 36" fill="none" xmlns="http://www.w3.org/2000/svg">
<path d="M5 1.75C2.89062 1.75 1.25 3.46875 1.25 5.5V30.5C1.25 32.6094 2.89062 34.25 5 34.25H30C32.0312 34.25 33.75 32.6094 33.75 30.5V5.5C33.75 3.46875 32.0312 1.75 30 1.75H5ZM0 5.5C0 2.76562 2.1875 0.5 5 0.5H30C32.7344 0.5 35 2.76562 35 5.5V30.5C35 33.3125 32.7344 35.5 30 35.5H5C2.1875 35.5 0 33.3125 0 30.5V5.5ZM11.4062 11.9844C11.6406 11.75 12.0312 11.75 12.2656 11.9844L17.5 17.1406L22.6562 11.9844C22.8906 11.75 23.2812 11.75 23.5156 11.9844C23.75 12.2188 23.75 12.6094 23.5156 12.8438L18.3594 18L23.5156 23.2344C23.75 23.4688 23.75 23.8594 23.5156 24.0938C23.2812 24.3281 22.8906 24.3281 22.6562 24.0938L17.5 18.9375L12.2656 24.0938C12.0312 24.3281 11.6406 24.3281 11.4062 24.0938C11.1719 23.8594 11.1719 23.4688 11.4062 23.2344L16.5625 18L11.4062 12.8438C11.1719 12.6094 11.1719 12.2188 11.4062 11.9844Z" fill="#FF262D"/>
</svg>
